<?xml version="1.0" standalone="no"?>
<!DOCTYPE svg PUBLIC "-//W3C//DTD SVG 20010904//EN"
 "http://www.w3.org/TR/2001/REC-SVG-20010904/DTD/svg10.dtd">
<svg version="1.0" xmlns="http://www.w3.org/2000/svg"
 width="191.000000pt" height="189.000000pt" viewBox="0 0 191.000000 189.000000"
 preserveAspectRatio="xMidYMid meet">

<g transform="translate(0.000000,189.000000) scale(0.100000,-0.100000)"
fill="#000000" stroke="none">
<path d="M833 1853 c15 -2 39 -2 55 0 15 2 2 4 -28 4 -30 0 -43 -2 -27 -4z"/>
<path d="M998 1853 c18 -2 45 -2 60 0 15 2 0 4 -33 4 -33 0 -45 -2 -27 -4z"/>
<path d="M740 1840 c-20 -6 -21 -8 -5 -8 11 0 31 4 45 8 20 6 21 8 5 8 -11 0
-31 -4 -45 -8z"/>
<path d="M1103 1843 c9 -2 23 -2 30 0 6 3 -1 5 -18 5 -16 0 -22 -2 -12 -5z"/>
<path d="M1205 1819 c32 -10 61 -16 63 -14 5 4 -97 35 -112 34 -6 0 16 -9 49
-20z"/>
<path d="M607 1796 c-43 -19 -108 -54 -145 -77 -91 -59 -237 -208 -290 -296
-221 -366 -156 -836 154 -1134 85 -81 140 -119 246 -169 96 -46 175 -68 267
-75 59 -4 57 -3 -24 10 -460 75 -791 489 -762 954 14 221 100 412 258 572 82
83 215 172 324 216 44 18 73 33 65 33 -8 0 -50 -16 -93 -34z"/>
<path d="M1340 1768 c106 -55 151 -87 229 -162 134 -129 210 -260 257 -441 23
-91 25 -113 21 -240 -4 -102 -11 -160 -27 -215 -69 -241 -243 -455 -460 -566
-30 -15 -91 -40 -135 -56 -44 -16 -64 -25 -45 -22 19 4 68 20 108 35 257 102
462 333 542 610 27 93 38 300 21 391 -41 215 -150 409 -307 542 -71 61 -196
138 -244 151 -14 3 4 -9 40 -27z"/>
<path d="M898 1603 c29 -2 74 -2 100 0 26 2 2 3 -53 3 -55 0 -76 -1 -47 -3z"/>
<path d="M750 1581 c-106 -34 -214 -103 -280 -177 -75 -86 -143 -216 -156
-299 -3 -16 6 2 19 42 72 212 231 369 437 430 41 12 66 22 55 22 -11 0 -45 -8
-75 -18z"/>
<path d="M1118 1580 c114 -30 206 -84 293 -170 87 -87 123 -143 162 -255 15
-44 24 -64 21 -45 -11 63 -44 138 -93 212 -52 79 -100 127 -185 184 -58 38
-205 94 -246 93 -14 0 8 -9 48 -19z"/>
<path d="M953 1323 c9 -2 25 -2 35 0 9 3 1 5 -18 5 -19 0 -27 -2 -17 -5z"/>
<path d="M878 1313 c6 -2 18 -2 25 0 6 3 1 5 -13 5 -14 0 -19 -2 -12 -5z"/>
<path d="M1071 1297 c193 -66 292 -266 230 -466 -82 -263 -406 -338 -602 -139
-187 190 -123 501 124 600 23 9 35 17 27 17 -29 1 -99 -38 -146 -81 -58 -53
-88 -99 -108 -168 -54 -181 36 -376 212 -458 49 -23 70 -27 152 -27 88 0 101
3 162 33 81 39 148 112 180 192 17 42 22 77 23 150 0 88 -3 100 -33 162 -22
46 -51 83 -89 118 -53 47 -141 90 -181 90 -9 0 13 -11 49 -23z"/>
<path d="M302 1040 c0 -19 2 -27 5 -17 2 9 2 25 0 35 -3 9 -5 1 -5 -18z"/>
<path d="M1607 995 c3 -44 7 -82 9 -84 7 -8 3 73 -6 119 -6 34 -7 25 -3 -35z"/>
<path d="M291 954 c0 -27 4 -67 9 -89 6 -28 6 -14 3 45 -6 95 -13 120 -12 44z"/>
<path d="M1603 865 c0 -22 2 -30 4 -17 2 12 2 30 0 40 -3 9 -5 -1 -4 -23z"/>
<path d="M310 809 c0 -26 37 -125 71 -189 41 -76 132 -177 206 -226 103 -68
192 -96 324 -102 123 -5 237 12 289 44 16 10 18 13 5 8 -100 -36 -164 -45
-285 -41 -109 4 -135 8 -201 34 -189 74 -320 216 -385 416 -13 40 -23 65 -24
56z"/>
<path d="M1582 773 c-39 -145 -147 -288 -282 -375 -41 -26 -70 -48 -64 -48 14
0 100 55 152 98 53 44 120 130 154 197 30 60 61 151 56 166 -2 6 -9 -11 -16
-38z"/>
<path d="M1108 53 c6 -2 18 -2 25 0 6 3 1 5 -13 5 -14 0 -19 -2 -12 -5z"/>
<path d="M1023 43 c15 -2 37 -2 50 0 12 2 0 4 -28 4 -27 0 -38 -2 -22 -4z"/>
</g>
</svg>
