<?xml version="1.0" standalone="no"?>
<!DOCTYPE svg PUBLIC "-//W3C//DTD SVG 20010904//EN"
 "http://www.w3.org/TR/2001/REC-SVG-20010904/DTD/svg10.dtd">
<svg version="1.0" xmlns="http://www.w3.org/2000/svg"
 width="177.000000pt" height="133.000000pt" viewBox="0 0 177.000000 133.000000"
 preserveAspectRatio="xMidYMid meet">

<g transform="translate(0.000000,133.000000) scale(0.100000,-0.100000)"
fill="#000000" stroke="none">
<path d="M1009 1295 c-52 -28 -78 -96 -55 -147 7 -18 84 -103 171 -188 l156
-155 -595 -5 -596 -5 -31 -31 c-60 -60 -48 -161 24 -204 31 -19 54 -20 610
-20 317 0 577 -2 577 -4 0 -3 -66 -69 -146 -148 -80 -79 -152 -155 -160 -170
-8 -15 -14 -46 -14 -69 0 -33 6 -47 34 -75 19 -19 42 -34 52 -34 13 1 8 5 -12
14 -44 19 -64 53 -64 105 0 44 1 46 172 218 l172 173 -593 0 c-531 0 -596 2
-621 16 -56 34 -76 105 -45 164 32 61 16 60 672 60 l598 1 -177 173 -178 173
0 48 c0 40 5 52 34 81 29 29 41 34 82 34 l48 0 283 -282 c297 -296 304 -306
289 -375 -10 -45 -552 -584 -603 -600 -21 -6 -30 -12 -21 -12 9 -1 29 4 45 10
30 11 515 487 564 553 33 44 37 90 14 140 -14 29 -147 164 -466 474 -102 98
-108 102 -150 102 -24 -1 -56 -7 -70 -15z"/>
</g>
</svg>
