<?xml version="1.0" standalone="no"?>
<!DOCTYPE svg PUBLIC "-//W3C//DTD SVG 20010904//EN"
 "http://www.w3.org/TR/2001/REC-SVG-20010904/DTD/svg10.dtd">
<svg version="1.0" xmlns="http://www.w3.org/2000/svg"
 width="125.000000pt" height="98.000000pt" viewBox="0 0 125.000000 98.000000"
 preserveAspectRatio="xMidYMid meet">

<g transform="translate(0.000000,98.000000) scale(0.100000,-0.100000)"
fill="#000000" stroke="none">
<path d="M410 944 c-104 -20 -186 -63 -251 -131 -96 -100 -124 -180 -123 -348
0 -101 5 -132 27 -200 30 -92 71 -161 130 -223 38 -38 45 -42 91 -42 l50 0
-45 28 c-123 78 -208 258 -209 439 0 135 42 244 126 323 94 89 193 116 392
107 298 -13 435 -117 433 -332 -1 -87 -44 -257 -61 -239 -4 5 -35 41 -67 80
l-59 71 1 -151 c0 -83 -4 -184 -8 -223 -5 -47 -5 -73 2 -73 5 0 45 24 88 53
111 76 146 96 231 133 84 37 87 33 -52 59 -43 8 -80 16 -82 17 -1 2 9 37 24
78 37 109 42 252 12 335 -39 105 -134 180 -276 220 -58 16 -319 29 -374 19z"/>
</g>
</svg>
