<?xml version="1.0" standalone="no"?>
<!DOCTYPE svg PUBLIC "-//W3C//DTD SVG 20010904//EN"
 "http://www.w3.org/TR/2001/REC-SVG-20010904/DTD/svg10.dtd">
<svg version="1.0" xmlns="http://www.w3.org/2000/svg"
 width="175.000000pt" height="174.000000pt" viewBox="0 0 175.000000 174.000000"
 preserveAspectRatio="xMidYMid meet">

<g transform="translate(0.000000,174.000000) scale(0.100000,-0.100000)"
fill="#000000" stroke="none">
<path d="M802 1695 c-16 -13 -34 -37 -41 -52 -12 -32 -21 -664 -8 -656 4 2 7
146 7 319 0 346 2 359 60 389 38 20 94 19 126 -1 52 -35 54 -47 54 -394 l0
-320 330 0 329 0 35 -31 c24 -20 38 -44 44 -72 6 -24 10 -32 11 -19 2 37 -24
87 -57 111 -29 20 -39 21 -356 21 l-325 0 -3 331 -3 331 -37 34 c-32 29 -45
34 -87 34 -38 0 -56 -6 -79 -25z"/>
<path d="M72 963 c-75 -63 -54 -189 36 -224 13 -5 163 -9 333 -9 l309 0 0
-315 c0 -347 2 -360 60 -390 37 -19 103 -19 140 0 58 30 60 43 60 390 l0 315
323 0 c295 0 324 2 350 18 32 22 56 51 57 71 0 8 -10 -1 -23 -20 -39 -58 -42
-59 -394 -59 l-323 0 0 -326 0 -326 -34 -34 c-30 -30 -40 -34 -85 -34 -42 0
-56 5 -83 29 l-33 29 -3 331 -3 330 -330 3 -331 3 -29 33 c-24 26 -29 41 -29
82 0 41 5 56 29 82 28 32 32 33 128 39 l98 5 -95 2 c-91 2 -97 1 -128 -25z"/>
<path d="M388 983 c12 -2 30 -2 40 0 9 3 -1 5 -23 4 -22 0 -30 -2 -17 -4z"/>
<path d="M468 983 c12 -2 32 -2 45 0 12 2 2 4 -23 4 -25 0 -35 -2 -22 -4z"/>
<path d="M573 983 c20 -2 54 -2 75 0 20 2 3 4 -38 4 -41 0 -58 -2 -37 -4z"/>
</g>
</svg>
