<?xml version="1.0" standalone="no"?>
<!DOCTYPE svg PUBLIC "-//W3C//DTD SVG 20010904//EN"
 "http://www.w3.org/TR/2001/REC-SVG-20010904/DTD/svg10.dtd">
<svg version="1.0" xmlns="http://www.w3.org/2000/svg"
 width="206.000000pt" height="179.000000pt" viewBox="0 0 206.000000 179.000000"
 preserveAspectRatio="xMidYMid meet">

<g transform="translate(0.000000,179.000000) scale(0.100000,-0.100000)"
fill="#000000" stroke="none">
<path d="M1444 1744 c-26 -27 -34 -44 -34 -71 0 -33 12 -48 122 -160 l122
-123 -773 0 c-819 0 -817 0 -835 -46 -4 -10 4 -7 25 10 l31 26 785 0 786 0
-126 129 c-149 151 -154 166 -88 232 21 22 34 39 29 39 -6 0 -26 -16 -44 -36z"/>
<path d="M1565 1766 c48 -22 432 -415 440 -451 10 -47 13 -52 14 -25 0 14 -5
35 -12 47 -7 11 -105 116 -220 232 -150 153 -213 211 -230 211 -19 -1 -18 -2
8 -14z"/>
<path d="M31 1282 c-1 -36 4 -49 28 -73 l29 -29 764 2 763 3 -767 5 c-864 6
-793 -2 -807 86 l-9 49 -1 -43z"/>
<path d="M1785 1034 c-190 -194 -225 -225 -260 -233 -33 -7 -35 -9 -12 -10 16
-1 38 4 50 11 26 13 447 437 447 450 0 11 20 30 -225 -218z"/>
<path d="M1636 1178 c3 -5 -40 -52 -96 -105 -107 -102 -130 -134 -130 -182 0
-28 41 -91 60 -91 5 0 -5 13 -21 29 -22 22 -29 39 -29 67 0 34 10 47 127 165
89 90 120 128 105 126 -11 0 -18 -5 -16 -9z"/>
<path d="M425 937 c-22 -13 -390 -383 -405 -407 -5 -8 -10 -22 -9 -30 0 -8 6
-1 13 15 8 17 103 119 213 228 189 186 201 197 237 197 30 0 45 -7 72 -34 36
-36 45 -36 16 0 -34 43 -95 57 -137 31z"/>
<path d="M581 836 c-1 -23 -25 -54 -123 -153 l-122 -123 791 0 c536 0 800 -3
821 -11 21 -7 37 -24 51 -52 11 -23 20 -36 21 -29 0 19 -26 66 -46 83 -14 12
-143 15 -811 19 l-794 5 105 107 c100 101 125 140 113 170 -3 7 -6 0 -6 -16z"/>
<path d="M11 446 c-1 -19 364 -397 404 -418 11 -6 -72 82 -185 195 -112 113
-207 213 -211 224 -7 17 -8 17 -8 -1z"/>
<path d="M2000 438 c0 -9 -14 -28 -31 -42 l-31 -26 -791 0 -792 0 101 -102
c56 -57 106 -112 112 -123 8 -14 11 -15 12 -5 0 8 -46 61 -102 117 l-103 103
780 0 c753 0 781 1 812 19 30 19 51 56 39 68 -3 4 -6 -1 -6 -9z"/>
<path d="M571 79 c-2 -27 -40 -53 -89 -60 l-47 -6 42 -2 c34 -1 49 5 74 27 19
17 30 34 26 43 -4 11 -6 11 -6 -2z"/>
</g>
</svg>
