<?xml version="1.0" standalone="no"?>
<!DOCTYPE svg PUBLIC "-//W3C//DTD SVG 20010904//EN"
 "http://www.w3.org/TR/2001/REC-SVG-20010904/DTD/svg10.dtd">
<svg version="1.0" xmlns="http://www.w3.org/2000/svg"
 width="162.000000pt" height="160.000000pt" viewBox="0 0 162.000000 160.000000"
 preserveAspectRatio="xMidYMid meet">

<g transform="translate(0.000000,160.000000) scale(0.100000,-0.100000)"
fill="#000000" stroke="none">
<path d="M81 1561 c-18 -10 -40 -29 -47 -42 -17 -30 -17 -87 -1 -117 12 -21
598 -614 603 -609 1 1 -130 135 -291 299 -161 163 -298 305 -304 316 -21 39
-13 91 18 122 34 34 68 45 119 36 32 -6 74 -44 332 -306 l295 -300 280 280
c154 154 296 291 316 305 51 36 99 34 145 -7 21 -18 35 -26 32 -18 -14 45
-111 74 -161 49 -12 -6 -154 -142 -314 -302 l-293 -292 -292 292 c-161 160
-303 296 -315 302 -32 16 -83 13 -122 -8z"/>
<path d="M1586 1470 c8 -43 14 -51 14 -19 0 13 -5 31 -10 39 -7 11 -8 5 -4
-20z"/>
<path d="M1579 1411 c-6 -16 -79 -91 -346 -361 l-252 -256 294 -296 c162 -163
300 -309 305 -324 25 -64 -30 -134 -110 -142 l-52 -5 -304 304 -304 303 -303
-302 -303 -302 -45 0 c-54 0 -101 27 -118 69 -28 67 -21 76 289 386 159 159
287 292 284 294 -8 9 -563 -553 -579 -585 -21 -44 -19 -87 6 -118 42 -53 120
-72 177 -42 15 8 153 141 307 295 154 155 283 281 287 281 5 0 133 -126 285
-281 153 -155 290 -287 305 -295 36 -18 82 -18 124 2 42 20 78 89 68 131 -4
19 -101 123 -302 325 l-296 298 44 46 c25 26 152 156 284 290 236 241 273 281
263 290 -3 3 -7 1 -8 -5z"/>
</g>
</svg>
